#!OML:ASF F:\VICON\USERDATA\INSTALL\rory3\rory3.ASF
:FULLY-SPECIFIED
:DEGREES
65
root 1.1341562902555684 17.919156631298133 46.27283866374019 -2.7808301280949785 -1.7219981650482428 -3.199881724820735
lfemur -8.028148389784052 -0.3316796458023852 -15.073216001370902
ltibia 58.8866153604989
lfoot -7.3996989520743215 0.1410735504310141
ltoes -6.420578418969139
rfemur -7.735186468481114 2.891593487382589 27.542421290629765
rtibia 27.181490115994166
rfoot -18.745417222640896 -11.269927935635582
rtoes -0.80171093550701
lowerback 9.51694026690837 -0.7777259335838043 2.075108335972062
upperback 0.15993538439730573 -0.45931949173385445 2.132403240156002
thorax -5.305194354596627 -0.22900529475048342 1.7511714981563506
lowerneck -16.60800526986906 -2.7685408886946306 -1.5622139946521152
upperneck 21.63929326797422 -3.4223200904533098 -0.14143855457849064
head 9.607702030524536 -1.7416433182718285 -0.22690590168799657
lclavicle 3.304937125875668e-16 -8.592000154515997e-16
lhumerus -29.963887010482374 1.9558530152040006 80.63276766551644
lradius 21.201132467149648
lwrist 8.20782217979856
lhand -28.71200315568196 19.712685926544925
lfingers nan
lthumb -1.886937591921991 49.76584988834581
rclavicle 4.121124524043546e-16 -8.013816865018733e-16
rhumerus -29.7473346307253 -23.244482982696812 -75.96979240336547
rradius 31.647047909480243
rwrist 2.3665366512187895
rhand -18.264365582243403 20.59832933888358
rfingers nan
rthumb 8.595584292437453 -8.003215808079112
66
root 1.133164795220702 17.909028685570327 46.10891503580474 -3.251732631400185 -1.943326308917758 -3.6690495480695184
lfemur -11.090494112882583 0.21298026046182472 -14.388867915515913
ltibia 58.52278222049601
lfoot -8.053173174808071 -0.22200715894898826
ltoes -6.697464947860377
rfemur -3.9178556497045687 3.4085383221120233 28.20639493860777
rtibia 26.245935958196412
rfoot -18.25401802369028 -11.228768930216894
rtoes -1.7272500488570057
lowerback 9.619397303764432 -0.31575388087394046 2.665899250455447
upperback 0.17112276068746857 0.24983480596612562 2.094412561550961
thorax -5.393306214610447 0.12288021930642537 1.2364392136597686
lowerneck -16.62990968069688 -2.851519510686839 -1.4102124322957375
upperneck 21.517990190469796 -3.5719610854226085 -0.15996366084812053
head 9.589360204878819 -1.8009159279323919 -0.30561456809794624
lclavicle 3.3884936446355357e-16 -8.546798505479846e-16
lhumerus -30.8486669036284 2.6347135110483575 80.87549364089361
lradius 21.08708154730053
lwrist 8.51600667954046
lhand -28.928738065271194 19.593958166385136
lfingers nan
lthumb -2.1840468243154625 49.518599358266286
rclavicle 4.150638711099906e-16 -8.004097997088444e-16
rhumerus -28.46840883130151 -21.88782102899092 -76.19937336652157
rradius 31.729952477535587
rwrist 2.1315464802800763
rhand -18.20104159617183 20.721443920348197
rfingers nan
rthumb 8.598104642296086 -7.829544565046171
67
root 1.110189504625768 17.894494744876134 45.51383685824268 -3.5410107360647456 -1.7558870170120444 -5.635309068233577
lfemur -14.540985494266277 0.6169377809551453 -12.398834922316492
ltibia 57.1291701656164
lfoot -8.406629817157222 1.1209244787987624
ltoes -7.986029655839795
rfemur -0.9697666908441214 4.232215274351986 30.351766222347408
rtibia 25.795235869567712
rfoot -16.484243454027208 -10.357974158684325
rtoes -2.2791086788430115
lowerback 9.700827996510775 0.02490482235883129 4.1585061382267625
upperback 0.15719381006748206 1.0300170753630984 2.230098522127186
thorax -5.492875825274564 0.48517164435676285 0.47993452957680344
lowerneck -16.62829858680877 -2.9565489424584026 -1.2948409513424928
upperneck 21.420721224585563 -3.759363011009864 -0.13985212773769806
head 9.57194331605182 -1.8749478403340774 -0.371296270338361
lclavicle 3.5157026671684075e-16 -8.477293497320016e-16
lhumerus -31.801986006032223 3.3231978976985106 81.06683261533833
lradius 21.255927485760136
lwrist 8.75703506692894
lhand -29.07299835973006 19.552975879165643
lfingers nan
lthumb -2.3478757597716133 49.48016052109383
rclavicle 4.199767351449653e-16 -7.985340509358949e-16
rhumerus -27.250165546303904 -20.408128170654045 -76.26057105591212
rradius 31.955612287448893
rwrist 1.9110608938112619
rhand -18.153282845466915 20.843481123629598
rfingers nan
rthumb 8.607282918364621 -7.60426729893599
68
root 1.0393727687446281 17.865020011762976 44.294676793033574 -3.9558975931052887 -1.6573108086504535 -7.011619991165852
lfemur -17.790255302527047 0.8560235515063599 -11.275886232310874
ltibia 54.71117678302579
lfoot -9.054279482768159 0.8397517817948912
ltoes -8.570307069912086
rfemur 0.6904067346791276 5.045623984051654 31.84190983754978
rtibia 26.412133750263813
rfoot -13.382738938966641 -8.919153769601065
rtoes -2.1555383277505658
lowerback 9.859239509778606 0.36227668691316567 5.096173741468553
upperback 0.13681175744023605 1.6847594501639978 2.244242094650855
thorax -5.543495385246401 0.7817233840379008 -0.25899345649109995
lowerneck -16.5580284289787 -3.068111091816353 -1.2215381661353728
upperneck 21.359925255065473 -3.9555384233681217 -0.07958495394983933
head 9.552489854773425 -1.9522219117979502 -0.409127309093014
lclavicle 3.6862795439240697e-16 -8.3862519217751165e-16
lhumerus -32.748258349441116 4.0378341507669315 81.1777569797768
lradius 21.631650360471358
lwrist 8.924896355007451
lhand -29.041459094110483 19.584822965772346
lfingers nan
lthumb -2.3548679475333385 49.46932515917974
rclavicle 4.264626720435481e-16 -7.961904176261201e-16
rhumerus -26.300587495366663 -19.053801133928005 -76.16352034373845
rradius 32.3113427023651
rwrist 1.7487403946901816
rhand -18.08846814108953 21.004924192147463
rfingers nan
rthumb 8.57956312079959 -7.519185957914085
69
root 0.9920526916623794 17.860406655667802 44.33964027517425 -3.5597749916296544 -1.1157218642151967 -8.559447459862517
lfemur -20.558028047534478 0.8285895873028022 -10.397762001840805
ltibia 51.42819533172869
lfoot -9.258883484860725 1.9279416937392666
ltoes -9.151976208767366
rfemur 1.8987612404257774 5.545901534975368 33.28903639776004
rtibia 27.679143937486952
rfoot -9.398671039152397 -7.676898101282642
rtoes -1.1830123595817228
lowerback 9.839061326652766 0.5261792623198014 6.2249107794285194
upperback 0.08870365197755221 2.162089215132176 2.23830022271607
thorax -5.517701446202215 0.9767571984714567 -0.949276720107543
lowerneck -16.43438012124219 -3.1696202502290935 -1.2144550147575839
upperneck 21.373217063217023 -4.135439353662875 0.010010398573032875
head 9.545836456598833 -2.02268812250059 -0.41927015964933423
lclavicle 3.8482668049468303e-16 -8.300175312621172e-16
lhumerus -33.604517329500055 4.774381577274862 81.20716214704038
lradius 22.136499051360914
lwrist 9.047268689042474
lhand -28.947422006128093 19.46643736780063
lfingers nan
lthumb -2.261725883191599 49.38150201337992
rclavicle 4.303902184946365e-16 -7.956231506910702e-16
rhumerus -25.608880487871577 -17.895286022619178 -76.01121433178953
rradius 32.742387893277474
rwrist 1.6712444177891186
rhand -18.087409887777913 21.006068470674617
rfingers nan
rthumb 8.599042401762063 -7.441801534040605
70
root 0.9483032337631928 17.84866681456405 43.993618743998184 -3.871042054419192 -0.9499760560345274 -8.080305363130309
lfemur -22.17188917531862 0.6248365567325773 -11.46752269658644
ltibia 47.45738608130981
lfoot -10.68417921369807 1.017926782419626
ltoes -8.923113777532377
rfemur 1.8223999739070944 5.3461710290141955 32.6649135898583
rtibia 30.032690418551987
rfoot -5.571069638523545 -7.364187088777041
rtoes 0.641219618141935
lowerback 9.872648420714706 0.7409710030059506 5.971754541783026
upperback 0.08412629801462065 2.4100604121742246 2.0623104109678256
thorax -5.34750427894827 1.0786712919444483 -1.3924980706782453
lowerneck -16.267696569174188 -3.246386750684951 -1.2648379603068691
upperneck 21.456768219587268 -4.273217698139864 0.12466550710110946
head 9.556905689592396 -2.075771759377802 -0.40096221529658804
lclavicle 3.99846860802742e-16 -8.218850187532577e-16
lhumerus -34.22811468359073 5.4586338314574485 81.18777652217078
lradius 22.699813414192054
lwrist 9.115021021374833
lhand -28.827488646962376 19.40006428166627
lfingers nan
lthumb -2.1700630899501157 49.33998141758318
rclavicle 4.319273117407135e-16 -7.965212219425337e-16
rhumerus -25.176144829322215 -16.93248862436073 -75.9050942069159
rradius 33.182221263957
rwrist 1.7131531550249464
rhand -18.035936388541433 21.104888711383065
rfingers nan
rthumb 8.60101959791502 -7.526333508269417
71
root 0.9200752564567499 17.844973115787955 43.84154726711667 -3.9265479581496225 -0.39626739007874834 -7.9668136346308005
lfemur -23.339706189554384 0.037634943811897914 -12.41210457125432
ltibia 43.31960338127688
lfoot -11.014161301798659 2.9494125171065138
ltoes -9.252971341995027
rfemur 1.9210431110826 4.742031192269682 32.28094304460907
rtibia 32.84932846337735
rfoot -2.3726800276597295 -7.927256909161834
rtoes 3.110688090613546
lowerback 9.784261682579537 0.8220752988349811 5.994705908059739
upperback 0.04953044889976721 2.5392474939002763 1.9021600447812532
thorax -5.181767730454491 1.1460027742625571 -1.6944757590245176
lowerneck -16.111777575377854 -3.302335495551135 -1.3600058399865054
upperneck 21.57287610028239 -4.377106063685595 0.26657523063111277
head 9.579601846200712 -2.113984363064876 -0.3601802757853553
lclavicle 4.1056556280606723e-16 -8.157880770101728e-16
lhumerus -34.513547627098305 5.999083903316734 81.15301535082455
lradius 23.252986158521708
lwrist 9.07274884679751
lhand -28.759442533560144 19.316283692232567
lfingers nan
lthumb -2.1366719835231645 49.246447110429
rclavicle 4.330070629394031e-16 -7.969933543234458e-16
rhumerus -25.023529364966066 -16.166504199515913 -75.9555781553936
rradius 33.56973265683248
rwrist 1.8593069577971812
rhand -18.083342970323937 20.9764624517272
rfingers nan
rthumb 8.642974573353657 -7.560812948989731
72
root 0.8994744827194966 17.834518339754442 43.99821930915742 -4.155412299148975 -0.14726551104471008 -6.9481074716013
lfemur -23.716872557678133 -0.7313649189880611 -14.22656605848125
ltibia 39.256323076144284
lfoot -10.990901354822926 3.083059892972833
ltoes -10.153013672747312
rfemur 1.7419239053443292 4.026432103344021 31.019511780029127
rtibia 35.92535112330053
rfoot 0.010104529730238454 -9.214308127291428
rtoes 5.7981325191540725
lowerback 9.732388754457325 0.967245879676019 5.49885422129554
upperback 0.017851067099935766 2.571449724447405 1.6741541807665095
thorax -5.023555407307358 1.1801019348745654 -1.856192819114297
lowerneck -16.009203268162842 -3.347966026597277 -1.4733387420608348
upperneck 21.664509356921524 -4.459561631268841 0.4392908389083542
head 9.59916440263242 -2.1413892687935365 -0.30019774262347737
lclavicle 4.186617006800594e-16 -8.109742851843376e-16
lhumerus -34.524304951765934 6.201043527538564 81.11374365395291
lradius 23.76194303040459
lwrist 8.953897048676065
lhand -28.67244054376587 19.364729488931893
lfingers nan
lthumb -2.085818117146729 49.29953725273131
rclavicle 4.344054267151919e-16 -7.967823936664574e-16
rhumerus -24.975644754851988 -15.461802182964503 -76.14374567622279
rradius 33.86637516834017
rwrist 2.061523565651699
rhand -18.034193767891562 21.047809594221015
rfingers nan
rthumb 8.651501271589833 -7.675535193043167
